<?xml version="1.0" encoding="UTF-8"?>
<!DOCTYPE svg PUBLIC "-//W3C//DTD SVG 1.1//EN" "http://www.w3.org/Graphics/SVG/1.1/DTD/svg11.dtd">
<svg xmlns="http://www.w3.org/2000/svg" version="1.1" width="385px" height="385px" style="shape-rendering:geometricPrecision; text-rendering:geometricPrecision; image-rendering:optimizeQuality; fill-rule:evenodd; clip-rule:evenodd" xmlns:xlink="http://www.w3.org/1999/xlink">
<g><path style="opacity:1" fill="#e07612" d="M 302.5,81.5 C 319.678,79.3732 329.678,86.7065 332.5,103.5C 329.781,122.366 319.114,129.533 300.5,125C 286.934,116.503 283.767,105.003 291,90.5C 294.449,86.8766 298.283,83.8766 302.5,81.5 Z"/></g>
<g><path style="opacity:1" fill="#e07511" d="M 171.5,83.5 C 213.37,80.1135 248.037,94.1135 275.5,125.5C 264.584,143.668 253.417,161.668 242,179.5C 233.667,167.5 225.333,155.5 217,143.5C 209.981,137.012 202.148,135.846 193.5,140C 191,141.167 189.167,143 188,145.5C 181.405,162.284 175.405,179.284 170,196.5C 164.167,189.333 158.333,182.167 152.5,175C 140.765,168.442 131.599,170.942 125,182.5C 118.339,203.818 111.672,225.151 105,246.5C 102.671,263.837 110.171,271.67 127.5,270C 132.598,268.567 136.098,265.4 138,260.5C 141.271,249.352 144.938,238.352 149,227.5C 154.459,234.627 160.292,241.461 166.5,248C 178.06,253.368 186.893,250.535 193,239.5C 197.87,224.389 203.037,209.389 208.5,194.5C 216.188,204.196 223.521,214.196 230.5,224.5C 236.746,229.694 243.746,230.861 251.5,228C 253.609,226.859 255.442,225.359 257,223.5C 269.667,202.833 282.333,182.167 295,161.5C 309.754,207.655 300.587,248.488 267.5,284C 231.278,316.445 189.945,325.112 143.5,310C 105.422,294.255 81.2557,266.422 71,226.5C 61.4038,170.896 80.2371,128.062 127.5,98C 141.339,90.2196 156.006,85.3863 171.5,83.5 Z"/></g>
</svg>
